<svg class="icon" viewBox="0 0 1027 1024" xmlns="http://www.w3.org/2000/svg">
  <path d="M105.8 165h816.4c57.88 0 104.8 46.266 104.8 103.338v474.324C1027 799.734 980.08 846 922.2 846H105.8C47.92 846 1 799.734 1 742.662V268.338C1 211.266 47.92 165 105.8 165zm.47 33C66.909 198 35 229.468 35 268.286v474.428C35 781.532 66.909 813 106.27 813h816.46c39.361 0 71.27-31.468 71.27-70.286V268.286C994 229.468 962.091 198 922.73 198H106.27zm31.53 152.36h40.28V459.8c15.96-23.18 35.72-34.58 60.04-34.58 28.12 0 50.16 10.26 66.5 30.78 14.82 19 22.42 42.94 22.42 71.82 0 30.02-7.6 54.72-22.8 73.72-16.72 20.52-39.14 30.78-68.02 30.78-26.98 0-47.12-9.88-60.8-28.88V627H137.8V350.36zM229 457.9c-15.2 0-27.36 5.7-36.48 17.86-10.64 12.92-15.58 30.02-15.58 51.3v3.42c0 19.76 4.18 35.72 12.54 48.26 9.5 13.68 23.18 20.9 40.66 20.9 19.76 0 34.2-7.22 43.7-21.28 7.6-12.16 11.78-28.88 11.78-50.54s-4.18-38.38-12.54-49.78c-9.5-13.68-24.32-20.14-44.08-20.14zm219.26-32.68c31.92 0 56.62 10.64 73.34 32.68 15.2 19.76 23.18 47.12 23.56 82.08H396.2c1.52 19 6.46 33.82 15.58 44.08 9.12 9.88 21.66 15.2 37.62 15.2 14.06 0 25.46-3.42 34.2-9.88 6.84-5.32 12.54-14.06 17.86-25.46h40.28c-4.56 18.24-13.3 33.82-26.98 45.98-17.1 14.82-38.76 22.42-64.98 22.42-28.88 0-52.06-9.12-68.78-26.98-18.24-19-27.36-44.46-27.36-76.76 0-29.26 8.36-53.58 25.84-73.34 16.72-20.14 39.9-30.02 68.78-30.02zm1.14 33.06c-15.2 0-26.98 4.18-36.1 13.3-8.36 8.74-14.06 21.28-16.34 38h106.02c-3.8-34.2-21.66-51.3-53.58-51.3zm189.62-91.2v63.46h44.84v33.44h-44.84v114c0 5.32 1.14 9.12 3.42 11.78 2.28 2.28 5.7 3.8 10.64 3.8h25.84V627h-32.3c-16.72 0-29.26-4.56-36.86-13.3-7.6-8.36-11.02-20.14-11.02-35.72v-114h-36.48v-33.44h36.48V383.8l40.28-16.72zm165.68 58.14c28.88 0 50.16 7.22 63.84 21.66 11.78 12.54 17.86 30.78 17.86 54.72V627h-37.24v-27.74c-7.6 9.88-17.1 17.86-28.5 23.56-12.92 6.08-28.12 9.5-45.6 9.5-20.52 0-36.48-5.32-47.88-15.58-12.54-10.26-18.62-23.56-18.62-39.9 0-22.04 8.74-39.14 26.22-50.92 15.96-11.4 38.76-17.1 67.64-17.86l44.08-1.14v-7.98c0-27.36-14.82-41.04-44.46-41.04-12.54 0-22.8 2.28-30.4 6.84-9.12 5.32-14.82 13.3-17.1 24.32l-39.9-3.42c4.18-21.28 14.82-37.24 31.54-47.12 14.44-9.12 34.2-13.3 58.52-13.3zm41.8 110.96-41.42 1.14c-36.86.76-55.1 13.68-55.1 38 0 7.6 3.04 13.68 9.5 18.62 6.08 4.94 14.44 7.6 24.7 7.6 17.1 0 31.54-5.32 43.7-15.58 12.16-10.26 18.62-23.18 18.62-38.38v-11.4z" fill="#F56565"/>
</svg>
