<svg xmlns="http://www.w3.org/2000/svg" viewBox="0 0 375 375" version="1.2">
  <defs>
    <clipPath id="a">
      <path d="M50 102.598h274.98v169.5H50Zm0 0"/>
    </clipPath>
  </defs>
  <g clip-path="url(#a)">
    <path style="stroke:none;fill-rule:nonzero;fill:currentColor;fill-opacity:1" d="m197.14 141.746-4.16 2.574 13.614-27.683a25.143 25.143 0 0 1 45.215.203l53.867 111.71a10.589 10.589 0 0 0 4.304 4.614 10.588 10.588 0 0 0 10.82-.2l4.16-2.577-13.612 27.687a25.138 25.138 0 0 1-22.559 14.035 25.136 25.136 0 0 1-22.656-14.242l-53.867-111.71a10.587 10.587 0 0 0-15.125-4.41Zm-87.777-.203a10.579 10.579 0 0 1 4.301 4.613l53.871 111.711a25.123 25.123 0 0 0 22.656 14.242 25.151 25.151 0 0 0 22.559-14.035l13.613-27.687-4.16 2.578a10.586 10.586 0 0 1-10.824.2 10.558 10.558 0 0 1-4.3-4.614L153.206 116.84a25.139 25.139 0 0 0-22.656-14.242 25.148 25.148 0 0 0-22.559 14.039L94.38 144.32l4.16-2.574a10.604 10.604 0 0 1 10.824-.203ZM51.352 242.43l7.445 15.445a25.127 25.127 0 0 0 22.656 14.242 25.143 25.143 0 0 0 22.559-14.039l13.613-27.683-4.16 2.578a10.595 10.595 0 0 1-10.824.199 10.579 10.579 0 0 1-4.301-4.613l-11.567-23.98c-4.425-9.18-17.484-9.231-21.98-.087l-13.398 27.242a12.223 12.223 0 0 0-.043 10.696Zm0 0"/>
  </g>
</svg>
